<svg xmlns="http://www.w3.org/2000/svg" viewBox="0 0 32 32" fill="none">
  <defs>
    <radialGradient id="cg" cx="50%" cy="45%" r="50%">
      <stop offset="0%" stop-color="#fff8e0"/>
      <stop offset="50%" stop-color="#f0c96b"/>
      <stop offset="100%" stop-color="#d39854"/>
    </radialGradient>
  </defs>
  <circle cx="16" cy="14" r="14" fill="#151d2e"/>
  <ellipse cx="16" cy="9" rx="3.5" ry="7" fill="#f0c96b" opacity="0.8" transform="rotate(0 16 14)"/>
  <ellipse cx="16" cy="9" rx="3.5" ry="7" fill="#75b7ca" opacity="0.75" transform="rotate(60 16 14)"/>
  <ellipse cx="16" cy="9" rx="3.5" ry="7" fill="#8764c8" opacity="0.75" transform="rotate(120 16 14)"/>
  <ellipse cx="16" cy="9" rx="3.5" ry="7" fill="#93b95f" opacity="0.8" transform="rotate(180 16 14)"/>
  <ellipse cx="16" cy="9" rx="3.5" ry="7" fill="#c96b5f" opacity="0.75" transform="rotate(240 16 14)"/>
  <ellipse cx="16" cy="9" rx="3.5" ry="7" fill="#f0c96b" opacity="0.75" transform="rotate(300 16 14)"/>
  <circle cx="16" cy="14" r="4.5" fill="url(#cg)"/>
  <path d="M 16 19 Q 15 24 14.5 28" stroke="#5a8f48" stroke-width="1.2" fill="none" stroke-linecap="round"/>
  <path d="M 15 23 Q 13 21.5 12.5 22.5 Q 12 23.5 14 24" fill="#6d9551" opacity="0.8"/>
</svg>
